<?xml version="1.0" encoding="UTF-8" standalone="no"?>
<!DOCTYPE svg PUBLIC "-//W3C//DTD SVG 1.1//EN" "http://www.w3.org/Graphics/SVG/1.1/DTD/svg11.dtd">
<svg width="100%" height="100%" viewBox="0 0 1185 1080" version="1.1" xmlns="http://www.w3.org/2000/svg" xmlns:xlink="http://www.w3.org/1999/xlink" xml:space="preserve" xmlns:serif="http://www.serif.com/" style="fill-rule:evenodd;clip-rule:evenodd;stroke-linejoin:round;stroke-miterlimit:2;">
    <rect id="Artboard1" x="-0" y="0" width="1184.5" height="1080" style="fill:none;"/>
    <clipPath id="_clip1">
        <rect id="Artboard11" serif:id="Artboard1" x="-0" y="0" width="1184.5" height="1080"/>
    </clipPath>
    <g clip-path="url(#_clip1)">
        <g transform="matrix(56.6461,0,0,56.6461,-8932.65,-6455.4)">
            <g transform="matrix(12,0,0,12,158.582,122.708)">
                <path d="M0.066,-0L0.066,-0.728L0.215,-0.728L0.215,-0.434L0.532,-0.434L0.532,-0.728L0.681,-0.728L0.681,-0L0.532,-0L0.532,-0.31L0.215,-0.31L0.215,-0L0.066,-0Z" style="fill:rgb(0,209,255);fill-rule:nonzero;"/>
            </g>
            <g transform="matrix(12,0,0,12,167.544,122.708)">
                <path d="M0.024,-0L0.273,-0.728L0.468,-0.728L0.723,-0L0.557,-0L0.441,-0.351C0.426,-0.396 0.412,-0.446 0.398,-0.5C0.383,-0.554 0.368,-0.613 0.352,-0.676L0.385,-0.676C0.369,-0.612 0.355,-0.553 0.341,-0.499C0.328,-0.445 0.314,-0.395 0.301,-0.351L0.188,-0L0.024,-0ZM0.179,-0.169L0.179,-0.286L0.567,-0.286L0.567,-0.169L0.179,-0.169Z" style="fill:rgb(0,209,255);fill-rule:nonzero;"/>
            </g>
            <g transform="matrix(12,0,0,12,176.503,122.708)">
            </g>
        </g>
        <g transform="matrix(50.7418,0,0,50.7418,-8085.75,-5152.58)">
            <g transform="matrix(12,0,0,12,158.582,122.708)">
                <path d="M0.366,0.01C0.306,0.01 0.253,-0.001 0.208,-0.023C0.163,-0.045 0.128,-0.076 0.103,-0.116C0.078,-0.156 0.066,-0.202 0.066,-0.255L0.066,-0.728L0.215,-0.728L0.215,-0.268C0.215,-0.239 0.221,-0.214 0.234,-0.192C0.246,-0.17 0.264,-0.153 0.286,-0.141C0.309,-0.128 0.336,-0.122 0.366,-0.122C0.397,-0.122 0.423,-0.128 0.446,-0.141C0.468,-0.153 0.486,-0.17 0.498,-0.192C0.511,-0.214 0.517,-0.239 0.517,-0.268L0.517,-0.728L0.666,-0.728L0.666,-0.255C0.666,-0.202 0.654,-0.156 0.629,-0.116C0.604,-0.076 0.569,-0.045 0.524,-0.023C0.479,-0.001 0.426,0.01 0.366,0.01Z" style="fill:rgb(0,209,255);fill-rule:nonzero;"/>
            </g>
            <g transform="matrix(12,0,0,12,167.366,122.708)">
                <path d="M0.066,-0L0.066,-0.728L0.35,-0.728C0.405,-0.728 0.452,-0.717 0.491,-0.696C0.529,-0.675 0.559,-0.646 0.579,-0.609C0.6,-0.572 0.61,-0.53 0.61,-0.482C0.61,-0.434 0.599,-0.391 0.579,-0.355C0.558,-0.318 0.528,-0.289 0.489,-0.269C0.45,-0.248 0.402,-0.238 0.346,-0.238L0.164,-0.238L0.164,-0.358L0.322,-0.358C0.353,-0.358 0.378,-0.363 0.398,-0.374C0.417,-0.384 0.432,-0.399 0.442,-0.418C0.451,-0.436 0.456,-0.458 0.456,-0.482C0.456,-0.506 0.451,-0.528 0.442,-0.546C0.432,-0.565 0.417,-0.579 0.397,-0.589C0.378,-0.599 0.352,-0.605 0.322,-0.605L0.215,-0.605L0.215,-0L0.066,-0Z" style="fill:rgb(0,209,255);fill-rule:nonzero;"/>
            </g>
            <g transform="matrix(12,0,0,12,175.144,122.708)">
                <path d="M0.037,-0.604L0.037,-0.728L0.631,-0.728L0.631,-0.604L0.409,-0.604L0.409,-0L0.259,-0L0.259,-0.604L0.037,-0.604Z" style="fill:rgb(0,209,255);fill-rule:nonzero;"/>
            </g>
            <g transform="matrix(12,0,0,12,183.156,122.708)">
            </g>
        </g>
    </g>
</svg>
